<svg width="18" height="18" viewBox="0 0 18 18" fill="none" xmlns="http://www.w3.org/2000/svg">
<path d="M8.71761 7.46899H16.9471C17.0379 7.976 17.0833 8.46032 17.0833 8.92192C17.0833 10.564 16.739 12.0302 16.0504 13.3205C15.3618 14.6107 14.3799 15.619 13.1048 16.3455C11.8297 17.072 10.3673 17.4352 8.71761 17.4352C7.52953 17.4352 6.39821 17.2063 5.32364 16.7485C4.24908 16.2906 3.32207 15.672 2.54264 14.8926C1.7632 14.1131 1.14456 13.1861 0.686739 12.1116C0.228913 11.037 0 9.90568 0 8.71761C0 7.52953 0.228913 6.39821 0.686739 5.32364C1.14456 4.24908 1.7632 3.32207 2.54264 2.54263C3.32207 1.7632 4.24908 1.14456 5.32364 0.686738C6.39821 0.228913 7.52953 0 8.71761 0C10.9878 0 12.9364 0.76052 14.5634 2.28156L12.191 4.56312C11.2602 3.66261 10.1024 3.21235 8.71761 3.21235C7.74142 3.21235 6.83901 3.45829 6.01038 3.95017C5.18176 4.44204 4.52529 5.10986 4.04097 5.95363C3.55666 6.79739 3.31451 7.71871 3.31451 8.71761C3.31451 9.7165 3.55666 10.6378 4.04097 11.4816C4.52529 12.3253 5.18176 12.9932 6.01038 13.485C6.83901 13.9769 7.74142 14.2229 8.71761 14.2229C9.37597 14.2229 9.98136 14.1321 10.5338 13.9504C11.0862 13.7688 11.5402 13.5418 11.8959 13.2694C12.2516 12.997 12.5618 12.6867 12.8267 12.3386C13.0915 11.9905 13.2864 11.6613 13.4113 11.351C13.5361 11.0408 13.6213 10.7457 13.6667 10.4657H8.71761V7.46899Z" fill="#787A80"/>
</svg>
